<?xml version="1.0" encoding="utf-8"?>
<!-- Generator: Adobe Illustrator 24.0.1, SVG Export Plug-In . SVG Version: 6.00 Build 0)  -->
<svg version="1.1" id="Layer_1" xmlns="http://www.w3.org/2000/svg" xmlns:xlink="http://www.w3.org/1999/xlink" x="0px" y="0px"
	 viewBox="0 0 3000 962" style="enable-background:new 0 0 3000 962;" xml:space="preserve">
<style type="text/css">
	.st0{fill:#034EA1;}
	.st1{fill:#00ADEE;}
	.st2{fill:none;stroke:#231F20;stroke-width:2.068;stroke-miterlimit:10;}
	.st3{fill:#231F20;}
	.st4{fill:#6D6E70;}
</style>
<g>
	<g>
		<polygon class="st0" points="0,410.01 385.7,150.58 385.7,-0.22 0,259.21 		"/>
		<polygon class="st1" points="0,255.36 385.7,514.77 385.7,665.55 0,406.15 		"/>
		<polygon class="st0" points="0,666.17 385.7,406.72 385.7,255.94 0,515.36 		"/>
		<polygon class="st1" points="771.43,666.17 385.74,406.72 385.74,255.94 771.43,515.36 		"/>
		<polygon class="st1" points="771.43,410.01 385.74,150.58 385.74,-0.22 771.43,259.21 		"/>
		<polygon class="st0" points="771.43,255.36 385.74,514.77 385.74,665.55 771.43,406.15 		"/>
		<polygon class="st1" points="0,514.96 385.7,774.41 385.7,925.18 0,665.73 		"/>
		<polygon class="st0" points="771.43,514.96 385.74,774.41 385.74,925.18 771.43,665.73 		"/>
		<path class="st0" d="M1163.2,411.58l-91.61-28.73c-18.38-5.77-31.34-12.25-38.91-19.37c-7.61-7.14-11.37-18.5-11.37-34.09
			c0-10.24,1.14-18.38,3.45-24.38c2.29-6,6.21-10.37,11.69-13.02c5.52-2.68,12.76-4.45,21.71-5.34c8.98-0.93,19.87-1.37,32.75-1.37
			c26.15,0,52.77,0.25,79.88,0.68c27.09,0.45,50.71,1.12,70.93,2.01l6.89-68.17c-26.17-7.1-53.03-11.9-80.57-14.35
			c-27.58-2.45-53.06-3.67-76.45-3.67c-31.24,0-58,1.77-80.25,5.36c-22.29,3.54-40.3,9.89-54.1,19.03
			c-13.76,9.14-23.98,22.16-30.61,39.08c-6.67,16.94-10,38.55-10,64.83c0,34.75,7.44,62.61,22.41,83.53
			c14.88,20.95,40.73,37.66,77.47,50.09l96.42,32.09c11.04,3.13,19.96,6.67,26.87,10.69c6.89,4.01,11.82,9.14,14.78,15.38
			c3.01,6.23,4.46,14.91,4.46,26.05c0,12.46-2.02,22.05-6.17,28.73c-4.13,6.67-11.35,11.13-21.71,13.35
			c-10.33,2.22-24.92,3.34-43.75,3.34c-10.55,0-22.94-0.07-37.17-0.34c-14.23-0.21-31.24-0.65-50.97-1.33
			c-19.75-0.67-43.41-1.21-70.95-1.67l-6.21,72.18c36.74,8.01,69.57,13.01,98.51,15.02c28.91,1.99,51.21,3,66.79,3
			c32.61,0,60.17-2.09,82.66-6.34c22.49-4.22,40.65-11.26,54.43-21.02c13.76-9.84,23.82-23.42,30.28-40.79
			c6.44-17.36,9.65-39.19,9.65-65.48c0-34.73-7.36-62.82-22.04-84.2C1227.69,441.01,1201.29,424.08,1163.2,411.58"/>
		<polygon class="st0" points="1638.46,473.07 1575.44,473.07 1597.24,549.25 1638.46,549.25 		"/>
		<path class="st0" d="M1588.49,217.49c-6.64-4.67-14.37-7.03-23.06-7.03h-99.86c-8.75,0-16.46,2.35-23.08,7.03
			c-6.67,4.67-11.12,11.22-13.45,19.71l-137.76,434.32h107.46l34.98-122.29h-41.83v-76.17h63.63l40.32-141
			c2.33-7.12,4.25-14.58,5.85-22.37c1.63-7.8,3.11-15.24,4.5-22.4h18.6c1.39,7.16,2.97,14.6,4.79,22.4
			c1.86,7.79,3.68,15.25,5.52,22.37l40.32,141h63.02v76.17h-41.2l35,122.29h107.42L1601.94,237.2
			C1599.61,228.71,1595.15,222.16,1588.49,217.49"/>
		<polygon class="st0" points="1455.53,473.07 1433.72,549.25 1597.24,549.25 1575.44,473.07 		"/>
		<polygon class="st0" points="1391.86,473.07 1391.86,549.25 1433.74,549.25 1455.53,473.07 		"/>
		<path class="st0" d="M2091.65,471.74c0,12.46,0.41,25.05,1.35,37.75c0.94,12.66,1.84,25.71,2.78,39.08h-8.24
			c-5.09-13.37-10.59-26.26-16.56-38.74c-5.99-12.49-11.94-23.83-17.89-34.1l-127.42-235.18c-5.5-9.8-11.16-17.28-16.89-22.41
			c-5.75-5.09-14.11-7.67-25.13-7.67h-57.18c-20.91,0-37.87,16.46-37.87,36.76v424.3h99.16V400.89c0-11.57-0.45-23.59-1.37-36.06
			c-0.9-12.46-2.06-24.5-3.44-36.12h7.57c3.7,11.62,8.15,23.55,13.43,35.77c5.28,12.25,10.73,23.49,16.23,33.74l131.53,242.55
			c5.5,10.26,11.14,17.96,16.87,23.07c5.74,5.11,14.35,7.67,25.82,7.67h57.88c20.91,0,37.86-16.45,37.86-36.75V210.47h-98.48V471.74
			z"/>
		<path class="st1" d="M2546.89,582.65v-12.34c-4.64,2.41-9.53,4.86-14.8,7.31c-9.89,4.67-20.55,8.39-32,11.05
			c-11.51,2.68-24.14,4.01-37.91,4.01c-20.2,0-36.27-4.58-48.21-13.71c-11.94-9.12-20.44-24.59-25.47-46.41
			c-5.07-21.82-7.6-51.9-7.6-90.22c0-32.07,1.74-58.15,5.17-78.18c3.45-20.07,9.04-35.64,16.89-46.79
			c7.79-11.11,18.24-18.72,31.3-22.71c13.11-4.03,29.52-6,49.27-6c16.56,0,32.39,0.1,47.51,0.3c15.19,0.25,30.32,0.59,45.47,1.01
			c15.15,0.44,30.75,1.14,46.86,2.01l8.24-74.17c-14.7-3.99-29.73-7.26-45.11-9.71c-15.41-2.43-31.57-4.22-48.54-5.32
			c-16.99-1.1-35.8-1.67-56.49-1.67c-51.91,0-93.29,7.48-124.31,22.37c-30.99,14.94-53.28,39.76-66.8,74.51
			c-13.57,34.73-20.32,82.18-20.32,142.34c0,56.55,5.27,102.45,15.83,137.62c10.55,35.21,27.33,61.05,50.28,77.52
			c22.98,16.48,52.36,24.72,88.14,24.72c24.8,0,46.86-3.66,66.16-11.01c19.26-7.35,35.7-16.37,49.25-27.06
			c8.45-6.67,15.44-13.04,21.29-19.2l-4.42-21.57L2546.89,582.65z"/>
		<path class="st1" d="M2546.89,366.8v203.51c4.13-2.15,8.05-4.29,11.72-6.36l11.71,48.1c-2.6,3.51-5.81,7.16-9.34,10.86
			l10.02,48.61h77.14V465.04C2648.14,410.8,2602.81,366.8,2546.89,366.8"/>
		<path class="st1" d="M2558.61,563.95c-3.68,2.07-7.59,4.22-11.72,6.36v12.34l9.67,18.71l4.44,21.55c3.52-3.71,6.71-7.35,9.3-10.88
			L2558.61,563.95z"/>
		<path class="st1" d="M2744.64,671.53h92.21V442.19c-10.35,22.14-33.18,37.62-59.88,37.62c-16.32,0-31.06-5.96-42.51-15.48
			c-1.43,4.77-2.31,9.72-2.31,14.87v143.73L2744.64,671.53z"/>
		<path class="st0" d="M2826.28,408.92c0,26.41-22.08,47.83-49.31,47.83c-27.25,0-49.29-21.42-49.29-47.83
			c0-26.41,22.04-47.82,49.29-47.82C2804.2,361.11,2826.28,382.51,2826.28,408.92"/>
		<path class="st2" d="M3000,160.68c0,45.4-37.93,82.19-84.72,82.19s-84.72-36.78-84.72-82.19c0-45.37,37.93-82.17,84.72-82.17
			S3000,115.31,3000,160.68z"/>
		<polygon class="st3" points="2877.86,143.15 2860.36,143.15 2860.36,135.12 2905.13,135.12 2905.13,143.15 2887.65,143.15 
			2887.65,186.25 2877.86,186.25 		"/>
		<polygon class="st3" points="2960.93,186.25 2960.85,152.38 2943.51,180.42 2939.18,180.42 2921.84,152.8 2921.84,186.25 
			2912.51,186.25 2912.51,135.12 2920.57,135.12 2941.47,169.03 2962.07,135.12 2970.11,135.12 2970.19,186.25 		"/>
	</g>
	<g>
		<g>
			<g>
				<path class="st4" d="M969.44,806.01c6.95,0,12.31,1.29,16.08,3.91c3.78,2.62,5.68,5.66,5.68,9.08c0,2.05-0.8,3.84-2.39,5.35
					c-1.6,1.52-3.53,2.28-5.79,2.28c-1.48,0-2.77-0.34-3.85-0.99c-1.1-0.65-2.66-2.24-4.69-4.82c-3.82-4.94-7.6-7.41-11.34-7.41
					c-3.21,0-6.02,1.18-8.49,3.57c-2.45,2.39-3.68,5.35-3.68,8.92c0,3.11,0.78,6.15,2.35,9.08c1.56,2.89,5.49,7.63,11.81,14.17
					c8.64,8.92,12.97,17.43,12.97,25.48s-3.51,15.08-10.52,21.12c-7.03,6-16.06,9.04-27.14,9.04c-9.29,0-16.18-1.86-20.7-5.54
					c-4.52-3.68-6.78-8.2-6.78-13.6c0-2.66,0.85-4.86,2.56-6.61c1.71-1.75,3.82-2.62,6.32-2.62c2.18,0,4.04,0.68,5.6,2.09
					s2.35,3.08,2.35,4.98c0,0.76-0.06,1.75-0.17,2.96c-0.04,0.99-0.08,1.82-0.08,2.51c0,2.51,1.1,4.63,3.27,6.38
					c2.11,1.75,4.98,2.62,8.62,2.62c4.2,0,7.9-0.72,11.07-2.13c3.19-1.41,5.68-3.53,7.46-6.34c1.78-2.85,2.68-5.7,2.68-8.51
					c0-2.73-0.84-5.43-2.51-8.17c-1.69-2.73-5.45-7.25-11.3-13.56c-8.11-8.81-12.15-17.24-12.15-25.37c0-7.44,3.08-13.94,9.25-19.52
					C952.1,808.79,959.92,806.01,969.44,806.01z"/>
				<path class="st4" d="M1074.47,804.08l7.73-1.6l-8.77,28.83c-3.51,11.47-6.84,24.69-9.95,39.65c-1.71,8.13-2.56,13.37-2.56,15.72
					s0.97,3.53,2.92,3.53c1.23,0,3.23-0.8,5.96-2.39c4.82-2.81,9.48-6.3,13.92-10.48l3.74,4.44c-8.89,7.9-14.58,12.68-17.07,14.36
					c-4.99,3.34-9.76,5.81-14.28,7.41c-2.96,1.06-5.85,1.6-8.66,1.6c-2.01,0-3.55-0.46-4.56-1.37s-1.52-2.24-1.52-3.99
					c0-1.14,0.3-2.7,0.93-4.67l4.69-15.5c-6.7,7.82-14.7,14.55-23.98,20.17c-5.7,3.49-10.92,5.24-15.67,5.24
					c-4.52,0-7.99-1.56-10.41-4.67c-3.29-4.18-4.92-9.65-4.92-16.41c0-8.05,2.2-17.01,6.61-26.89c4.41-9.87,10.31-18.84,17.72-26.89
					s15.21-13.98,23.39-17.77c6.3-2.89,14.41-4.33,24.33-4.33c2.49,0,5.03,0.15,7.6,0.46L1074.47,804.08z M1059.96,821.51
					c-4.2-0.84-7.75-1.25-10.63-1.25c-7.03,0-13.14,1.86-18.36,5.62s-10.08,10.52-14.56,20.28c-4.48,9.76-6.72,19.52-6.72,29.24
					c0,5.17,0.89,8.89,2.7,11.17c1.78,2.28,4.12,3.42,7.01,3.42c5.39,0,11.15-2.85,17.32-8.51c6.15-5.66,10.67-13.79,13.56-24.42
					L1059.96,821.51z"/>
				<path class="st4" d="M1098.79,832.79l-3.97-3.99c9.99-9.3,17.94-15.5,23.89-18.57c5.92-3.04,10.99-4.56,15.21-4.56
					c1.63,0,2.92,0.34,3.85,1.03c0.93,0.68,1.41,1.48,1.41,2.39c0,0.68-0.19,1.9-0.59,3.65l-5.26,22.94
					c7.94-8.62,17.89-16.63,29.89-24.08c6.38-3.87,11.64-5.81,15.76-5.81c3.04,0,5.41,0.95,7.12,2.85c1.71,1.9,2.56,4.63,2.56,8.2
					c0,2.35-0.34,5.01-1.04,7.98c-1.23,4.94-4.5,15.69-9.8,32.24c-4.96,15.5-7.44,25.79-7.44,30.88c0,1.56,0.23,2.73,0.7,3.49
					c0.46,0.8,1.12,1.18,1.97,1.18c2.26,0,5.81-2.13,10.65-6.38c3.44-3.04,6.86-5.85,10.29-8.43l2.92,4.1
					c-7.18,7.71-14.62,13.9-22.35,18.57c-4.9,3.04-8.96,4.56-12.15,4.56c-2.96,0-5.26-1.06-6.89-3.15
					c-1.65-2.09-2.47-5.47-2.47-10.18c0-6.76,4.33-23.58,12.99-50.47c2.64-9.57,3.97-15.15,3.97-16.75c0-2.35-1.44-3.53-4.33-3.53
					c-3.11,0-7.12,1.6-12.04,4.79c-7.33,4.71-13.44,10.25-18.36,16.67c-3.11,4.1-5.73,10.63-7.84,19.6l-9.46,39.84h-17.43
					c3.27-11.43,6.11-22.33,8.53-32.74l10.43-43.37c0.38-1.75,0.57-3,0.57-3.76c0-2.05-0.78-3.08-2.34-3.08
					c-1.25,0-3.04,0.8-5.37,2.39C1107.53,824.43,1103.01,828.27,1098.79,832.79z"/>
				<path class="st4" d="M1336.82,805.22l9.4-2.05c-5.68,17.77-10.88,35.59-15.61,53.44c-3.44,12.76-5.79,23.39-7.12,31.9
					c-0.7,4.25-1.08,9.65-1.16,16.18c-0.15,10.94-1.41,19.75-3.74,26.43c-3.29,9.34-9.38,16.86-18.32,22.56
					c-8.93,5.7-19.52,8.55-31.77,8.55c-10.52,0-18.8-2.43-24.86-7.25c-6.04-4.82-9.06-10.33-9.06-16.56c0-6.15,2.41-11.89,7.27-17.2
					c3.59-4.03,11.09-8.89,22.5-14.58c5.79-2.96,11.22-6,16.29-9.11c-5.79,2.89-10.29,4.33-13.5,4.33c-2.91,0-5.47-1.33-7.71-3.95
					c-2.22-2.62-3.34-6.08-3.34-10.41c0-13.98,4.27-27.88,12.82-41.66c8.53-13.79,18.8-24.12,30.82-31.03
					c7.41-4.25,16.69-6.38,27.86-6.38c2.18,0,4.86,0.08,8.07,0.23L1336.82,805.22z M1307.9,884.17
					c-5.32,4.63-15.53,12.04-30.71,22.22c-13.35,8.81-21.55,15.15-24.59,19.03c-3.06,3.95-4.58,8.13-4.58,12.53
					c0,4.33,1.97,8.2,5.92,11.66c3.93,3.46,8.72,5.2,14.36,5.2c5.3,0,10.46-1.29,15.46-3.84c5.01-2.54,9.36-6.23,13.06-11.05
					c3.72-4.82,6.27-10.25,7.69-16.33c1.41-6.08,2.15-14.13,2.22-24.15C1306.82,897.24,1307.2,892.15,1307.9,884.17z
					 M1323.76,822.08c-3.74-0.68-7.04-1.03-9.93-1.03c-7.39,0-13.75,1.9-19.05,5.7c-5.28,3.8-9.8,10.18-13.54,19.14
					c-5.22,12.68-7.84,23.36-7.84,32.02c0,3.57,1.04,6.57,3.11,9c2.05,2.43,4.37,3.65,6.95,3.65c3.11,0,6.97-1.48,11.56-4.41
					c4.6-2.92,8.36-6.57,11.26-10.98c2.92-4.41,5.91-12,8.94-22.79L1323.76,822.08z"/>
				<path class="st4" d="M1375.5,901.83h-17.43l8.2-30.65c3.97-15.04,7.44-29.32,10.41-42.84c0.7-3.34,1.04-5.43,1.04-6.27
					c0-1.82-0.85-2.73-2.56-2.73c-1.18,0-2.96,0.76-5.39,2.32c-2.41,1.56-6.78,5.43-13.1,11.58l-3.61-3.99
					c7.48-7.82,14.94-13.71,22.39-17.62c7.42-3.91,13.14-5.85,17.13-5.85c1.39,0,2.51,0.3,3.32,0.95s1.23,1.48,1.23,2.47
					c0,0.99-0.51,3.61-1.54,7.9l-5.09,20.51c7.88-12.15,16.79-22.52,26.72-31.14c4.77-4.1,8.74-6.15,11.94-6.15
					c2.35,0,4.29,0.72,5.87,2.2c1.56,1.48,2.34,3.23,2.34,5.2c0,2.05-0.76,3.8-2.28,5.24c-1.52,1.44-5.32,3.15-11.39,5.13
					c-5.75,1.9-10.46,4.18-14.07,6.84c-3.63,2.66-7.6,6.72-11.93,12.19c-4.33,5.47-7.35,10.25-9.08,14.28
					c-1.71,4.06-4.33,13.52-7.84,28.33L1375.5,901.83z"/>
				<path class="st4" d="M1483.71,806.01c7.63,0,13.98,2.96,19.05,8.89c5.07,5.92,7.61,14.17,7.61,24.72
					c0,16.86-6.08,31.98-18.25,45.38c-12.17,13.41-25.03,20.13-38.59,20.13c-8.36,0-15.08-2.66-20.19-7.98
					c-5.11-5.32-7.65-12.57-7.65-21.76c0-15.95,4.67-30.69,14.03-44.21C1451.5,814.41,1466.16,806.01,1483.71,806.01z
					 M1473.76,814.56c-6.63,0-13.05,4.6-19.24,13.82c-6.21,9.23-9.3,21.99-9.3,38.24c0,9.87,1.92,17.66,5.73,23.36
					c2.81,4.18,6.55,6.27,11.22,6.27c6.55,0,12.51-3.95,17.91-11.85c6.86-10.25,10.29-22.98,10.29-38.17
					c0-11.39-1.6-19.52-4.75-24.38C1482.47,816.99,1478.5,814.56,1473.76,814.56z"/>
				<path class="st4" d="M1600.49,808.98h16.63l-10.98,39.8c-6.49,23.13-9.72,36.31-9.72,39.5c0,1.44,0.34,2.54,1.06,3.3
					c0.68,0.76,1.48,1.14,2.32,1.14c1.33,0,2.89-0.57,4.71-1.71c2.54-1.75,7.44-6.15,14.58-13.22l3.87,4.22
					c-15.69,15.88-27.19,23.81-34.6,23.81c-2.51,0-4.63-0.95-6.38-2.81c-1.75-1.86-2.66-4.48-2.66-7.9c0-3.95,0.87-9.23,2.54-15.84
					c-6.91,7.75-15.5,14.55-25.71,20.39c-6.76,3.87-12.65,5.81-17.64,5.81c-2.72,0-4.86-0.87-6.42-2.62
					c-1.56-1.75-2.34-4.52-2.34-8.36c0-2.96,0.34-6.15,1.04-9.57c1.03-4.79,3.59-14.39,7.73-28.86c5.22-18.34,7.82-29.32,7.82-32.97
					c0-2.13-0.8-3.19-2.35-3.19c-1.39,0-3.29,0.68-5.7,2.09c-2.43,1.41-6.55,4.82-12.4,10.22l-5.15-3.99
					c10.44-9.11,18.42-15.12,23.89-17.96c5.51-2.85,9.95-4.25,13.29-4.25c1.86,0,3.38,0.65,4.56,1.97c1.18,1.33,1.75,3.42,1.75,6.23
					c0,5.24-2.81,18.15-8.43,38.66c-4.98,18.5-7.48,29.05-7.48,31.64c0,1.6,0.53,2.96,1.6,4.1c1.06,1.14,2.2,1.71,3.46,1.71
					c4.33,0,10.56-3.53,18.57-10.56c8.01-7.03,13.29-15,15.76-23.96L1600.49,808.98z"/>
				<path class="st4" d="M1633.38,834.27l-4.56-4.56c7.1-8.28,14.17-14.39,21.19-18.34c6.99-3.95,13.06-5.92,18.23-5.92
					c1.94,0,3.49,0.46,4.63,1.41c1.1,0.95,1.67,2.35,1.67,4.18c0,2.2-0.23,4.44-0.76,6.76c-0.49,2.32-2.09,7.82-4.71,16.48
					c11.93-11.62,20.05-18.8,24.42-21.53c7.33-4.63,14.05-6.95,20.13-6.95c3.99,0,7.33,1.82,10.06,5.47
					c2.7,3.65,4.06,9.15,4.06,16.52c0,18.38-5.85,35.85-17.62,52.41s-24.8,24.84-39.04,24.84c-5.62,0-11.2-1.48-16.82-4.44
					l-9.99,37.6c-0.65,2.28-0.95,4.14-0.95,5.58c0,2.81,1.1,4.82,3.27,6.04c3.38,1.9,10.41,3.46,21.19,4.67l-1.52,5.7
					c-12.57-0.99-22.45-1.48-29.59-1.48c-7.44,0-17.01,0.49-28.79,1.48l1.52-5.7c5.92-0.61,10.22-2.2,12.91-4.79
					s4.86-7.18,6.49-13.79l21.19-86.48c3.95-16.1,5.96-25.07,5.96-26.89c0-1.97-0.99-2.96-2.92-2.96
					C1649.6,819.57,1643.06,824.47,1633.38,834.27z M1657.08,888.05c6.15,6,12.46,9,18.91,9c9.34,0,17.55-7.1,24.61-21.31
					c7.03-14.2,10.56-28.07,10.56-41.59c0-4.33-0.99-7.63-2.96-9.87s-4.67-3.34-8.01-3.34c-3.72,0-7.94,1.78-12.61,5.35
					c-7.22,5.54-12.76,11.05-16.56,16.52c-2.73,3.95-5.28,10.79-7.71,20.51L1657.08,888.05z"/>
				<path class="st4" d="M1847.65,806.01c7.63,0,13.98,2.96,19.07,8.89c5.05,5.92,7.6,14.17,7.6,24.72
					c0,16.86-6.08,31.98-18.23,45.38c-12.19,13.41-25.03,20.13-38.59,20.13c-8.36,0-15.08-2.66-20.2-7.98
					c-5.09-5.32-7.63-12.57-7.63-21.76c0-15.95,4.67-30.69,14.01-44.21C1815.45,814.41,1830.11,806.01,1847.65,806.01z
					 M1837.7,814.56c-6.61,0-13.03,4.6-19.22,13.82c-6.23,9.23-9.3,21.99-9.3,38.24c0,9.87,1.9,17.66,5.73,23.36
					c2.81,4.18,6.53,6.27,11.2,6.27c6.57,0,12.53-3.95,17.93-11.85c6.84-10.25,10.29-22.98,10.29-38.17
					c0-11.39-1.6-19.52-4.75-24.38C1846.44,816.99,1842.45,814.56,1837.7,814.56z"/>
				<path class="st4" d="M1889.39,813.42h27.95c4.6-18.99,9.87-33.12,15.8-42.38s13.63-16.6,23.17-21.95
					c9.49-5.35,18.46-8.01,26.89-8.01c4.75,0,8.36,0.91,10.75,2.73c2.43,1.82,3.65,3.99,3.65,6.49c0,2.28-0.84,4.18-2.47,5.7
					c-1.63,1.52-3.8,2.28-6.46,2.28c-2.73,0-7.86-0.8-15.46-2.39c-3.72-0.76-6.65-1.14-8.77-1.14c-5.17,0-9.8,3.08-13.94,9.27
					c-4.14,6.19-7.44,14.58-9.95,25.14l-5.89,24.27h30.99l-1.86,8.09h-31.41l-18.31,72.69c-5.7,22.1-14.77,38.85-27.31,50.25
					s-26.09,17.09-40.75,17.09c-4.94,0-8.66-0.95-11.17-2.81c-2.54-1.86-3.8-4.14-3.8-6.87c0-2.35,0.87-4.25,2.62-5.66
					c1.75-1.41,4.25-2.09,7.56-2.09c1.63,0,4.03,0.19,7.22,0.57c5.47,0.68,10.71,1.03,15.69,1.03c7.71,0,13.33-1.79,16.86-5.32
					c3.49-3.53,6.99-12.15,10.52-25.9l23.74-92.97h-27.95L1889.39,813.42z"/>
				<path class="st4" d="M2018.41,832.45l-5.17-3.87c7.79-8.36,14.89-14.32,21.31-17.85c6.46-3.53,11.93-5.28,16.44-5.28
					c2.47,0,4.37,0.53,5.7,1.6s2.01,2.51,2.01,4.33c0,2.2-2.54,11.55-7.6,28.03c-8.24,26.96-12.38,43.22-12.38,48.76
					c0,1.06,0.3,1.94,0.84,2.66c0.53,0.72,1.14,1.1,1.75,1.1c2.51,0,8.89-4.71,19.18-14.13l4.56,4.33
					c-10.67,9.8-18.46,16.06-23.39,18.8c-4.9,2.73-8.92,4.1-12.04,4.1c-2.73,0-4.9-0.84-6.49-2.51c-1.6-1.67-2.39-3.99-2.39-6.95
					c0-9.49,5.85-32.7,17.55-69.61c0.53-1.75,0.84-3.3,0.84-4.67c0-1.52-0.72-2.28-2.13-2.28c-1.56,0-3.3,0.61-5.32,1.82
					C2029.68,822.04,2025.24,825.92,2018.41,832.45z M2064.36,757.02c2.39,0,4.41,0.76,5.96,2.32s2.35,3.57,2.35,6
					c0,3.34-1.22,6.27-3.57,8.81c-2.39,2.54-5.05,3.84-8.01,3.84c-2.35,0-4.29-0.8-5.85-2.39s-2.35-3.68-2.35-6.27
					c0-3.42,1.14-6.34,3.38-8.74C2058.55,758.2,2061.25,757.02,2064.36,757.02z"/>
				<path class="st4" d="M2075.6,832.79l-3.99-3.99c9.99-9.3,17.96-15.5,23.89-18.57c5.92-3.04,11.01-4.56,15.23-4.56
					c1.63,0,2.92,0.34,3.84,1.03c0.95,0.68,1.41,1.48,1.41,2.39c0,0.68-0.19,1.9-0.57,3.65l-5.28,22.94
					c7.94-8.62,17.89-16.63,29.89-24.08c6.38-3.87,11.66-5.81,15.76-5.81c3.04,0,5.43,0.95,7.14,2.85c1.71,1.9,2.54,4.63,2.54,8.2
					c0,2.35-0.34,5.01-1.03,7.98c-1.25,4.94-4.52,15.69-9.8,32.24c-4.98,15.5-7.44,25.79-7.44,30.88c0,1.56,0.23,2.73,0.68,3.49
					c0.46,0.8,1.14,1.18,1.97,1.18c2.28,0,5.81-2.13,10.67-6.38c3.42-3.04,6.84-5.85,10.29-8.43l2.92,4.1
					c-7.18,7.71-14.62,13.9-22.37,18.57c-4.9,3.04-8.96,4.56-12.15,4.56c-2.96,0-5.24-1.06-6.87-3.15
					c-1.67-2.09-2.47-5.47-2.47-10.18c0-6.76,4.33-23.58,12.99-50.47c2.62-9.57,3.95-15.15,3.95-16.75c0-2.35-1.44-3.53-4.33-3.53
					c-3.11,0-7.1,1.6-12.04,4.79c-7.33,4.71-13.44,10.25-18.34,16.67c-3.11,4.1-5.73,10.63-7.86,19.6l-9.46,39.84h-17.43
					c3.27-11.43,6.11-22.33,8.55-32.74l10.41-43.37c0.38-1.75,0.57-3,0.57-3.76c0-2.05-0.76-3.08-2.32-3.08
					c-1.25,0-3.04,0.8-5.39,2.39C2084.34,824.43,2079.82,828.27,2075.6,832.79z"/>
				<path class="st4" d="M2272.29,878.25l3.3,4.33c-10.48,8.58-18.23,14.28-23.28,17.09c-7.03,3.87-12.57,5.81-16.63,5.81
					c-1.86,0-3.38-0.53-4.56-1.56c-1.14-1.03-1.75-2.16-1.75-3.46s0.42-3.42,1.29-6.38l4.1-13.94c-9.38,9.8-17.17,16.48-23.39,19.98
					s-11.85,5.24-16.86,5.24c-4.1,0-7.6-1.78-10.41-5.32c-2.81-3.53-4.22-8.74-4.22-15.57c0-10.79,3.84-23.2,11.43-37.22
					c7.6-14.05,16.06-24.42,25.37-31.14c9.3-6.76,17.85-10.1,25.56-10.1c1.71,0,4.29,0.27,7.71,0.8
					c3.68-14.81,7.18-25.6,10.52-32.36c3.38-6.8,7.67-12.65,12.99-17.58c5.32-4.94,11.36-8.74,18.19-11.43s13.18-4.03,19.1-4.03
					c3.15,0,5.62,0.8,7.52,2.39c1.86,1.6,2.77,3.61,2.77,6.04c0,2.35-0.84,4.25-2.54,5.73c-1.75,1.48-4.1,2.24-7.06,2.24
					c-1.94,0-5.58-0.38-10.9-1.14c-5.32-0.76-8.92-1.14-10.9-1.14c-2.73,0-5.13,0.8-7.22,2.43c-2.05,1.63-4.03,5.13-5.92,10.52
					c-1.22,3.42-4.06,14.32-8.47,32.7l-16.56,68.86c-1.94,8.13-2.92,13.52-2.92,16.18c0,2.89,1.14,4.33,3.38,4.33
					c1.41,0,3.08-0.49,4.94-1.48C2259.53,887.63,2264.66,884.02,2272.29,878.25z M2247.49,819.35c-6.23-1.37-10.63-2.05-13.22-2.05
					c-5.2,0-10.33,1.97-15.31,6c-4.98,3.99-9.8,11.74-14.43,23.2c-4.63,11.47-6.99,21.5-6.99,30c0,3.87,1.1,7.06,3.23,9.53
					c2.16,2.47,4.6,3.72,7.33,3.72c3.27,0,6.99-1.41,11.2-4.22c6-4.22,10.79-9.3,14.28-15.31c2.09-3.8,4.94-13.14,8.55-27.95
					L2247.49,819.35z"/>
				<path class="st4" d="M2366.67,808.98h16.63l-10.98,39.8c-6.49,23.13-9.72,36.31-9.72,39.5c0,1.44,0.34,2.54,1.06,3.3
					c0.68,0.76,1.48,1.14,2.32,1.14c1.33,0,2.89-0.57,4.71-1.71c2.54-1.75,7.44-6.15,14.58-13.22l3.87,4.22
					c-15.69,15.88-27.19,23.81-34.6,23.81c-2.51,0-4.63-0.95-6.38-2.81c-1.75-1.86-2.66-4.48-2.66-7.9c0-3.95,0.87-9.23,2.54-15.84
					c-6.91,7.75-15.5,14.55-25.71,20.39c-6.76,3.87-12.65,5.81-17.66,5.81c-2.7,0-4.86-0.87-6.42-2.62
					c-1.56-1.75-2.32-4.52-2.32-8.36c0-2.96,0.34-6.15,1.03-9.57c1.03-4.79,3.61-14.39,7.75-28.86c5.2-18.34,7.82-29.32,7.82-32.97
					c0-2.13-0.8-3.19-2.35-3.19c-1.41,0-3.3,0.68-5.7,2.09c-2.43,1.41-6.57,4.82-12.42,10.22l-5.13-3.99
					c10.44-9.11,18.42-15.12,23.89-17.96c5.51-2.85,9.95-4.25,13.29-4.25c1.86,0,3.38,0.65,4.56,1.97c1.18,1.33,1.75,3.42,1.75,6.23
					c0,5.24-2.81,18.15-8.43,38.66c-4.98,18.5-7.48,29.05-7.48,31.64c0,1.6,0.53,2.96,1.6,4.1c1.06,1.14,2.2,1.71,3.46,1.71
					c4.33,0,10.56-3.53,18.57-10.56c8.01-7.03,13.29-15,15.76-23.96L2366.67,808.98z"/>
				<path class="st4" d="M2449.12,806.01c6.95,0,12.31,1.29,16.1,3.91c3.76,2.62,5.66,5.66,5.66,9.08c0,2.05-0.8,3.84-2.39,5.35
					c-1.59,1.52-3.53,2.28-5.77,2.28c-1.48,0-2.77-0.34-3.87-0.99s-2.66-2.24-4.67-4.82c-3.84-4.94-7.6-7.41-11.36-7.41
					c-3.19,0-6,1.18-8.47,3.57c-2.47,2.39-3.68,5.35-3.68,8.92c0,3.11,0.76,6.15,2.35,9.08c1.56,2.89,5.47,7.63,11.81,14.17
					c8.62,8.92,12.95,17.43,12.95,25.48s-3.49,15.08-10.52,21.12c-7.03,6-16.06,9.04-27.12,9.04c-9.3,0-16.18-1.86-20.7-5.54
					c-4.52-3.68-6.8-8.2-6.8-13.6c0-2.66,0.87-4.86,2.58-6.61c1.71-1.75,3.8-2.62,6.3-2.62c2.2,0,4.06,0.68,5.62,2.09
					s2.35,3.08,2.35,4.98c0,0.76-0.08,1.75-0.19,2.96c-0.04,0.99-0.08,1.82-0.08,2.51c0,2.51,1.1,4.63,3.27,6.38
					c2.13,1.75,4.98,2.62,8.62,2.62c4.22,0,7.9-0.72,11.09-2.13s5.66-3.53,7.44-6.34c1.78-2.85,2.7-5.7,2.7-8.51
					c0-2.73-0.84-5.43-2.51-8.17c-1.71-2.73-5.47-7.25-11.32-13.56c-8.09-8.81-12.15-17.24-12.15-25.37
					c0-7.44,3.08-13.94,9.27-19.52C2431.8,808.79,2439.63,806.01,2449.12,806.01z"/>
				<path class="st4" d="M2507.15,788.47l18.57-6.95l-8.39,31.9h24.19l-1.86,8.09h-24.23l-10.22,38.17
					c-3.23,11.47-4.86,19.45-4.86,23.93c0,2.05,0.46,3.53,1.37,4.44c0.87,0.91,2.13,1.37,3.68,1.37c2.39,0,6.11-1.41,11.09-4.22
					c6.57-3.72,12.8-7.94,18.72-12.65l4.44,5.24c-17.09,12.53-28.48,20.2-34.26,23.01c-5.77,2.81-10.41,4.22-13.94,4.22
					c-2.89,0-5.17-1.03-6.84-3.08c-1.67-2.05-2.51-5.39-2.51-10.03c0-5.47,1.48-13.82,4.44-25.07l11.89-45.35h-18.95l2.13-8.09
					h18.95L2507.15,788.47z"/>
				<path class="st4" d="M2572.66,901.83h-17.43l8.2-30.65c3.95-15.04,7.44-29.32,10.41-42.84c0.68-3.34,1.03-5.43,1.03-6.27
					c0-1.82-0.84-2.73-2.54-2.73c-1.18,0-2.96,0.76-5.39,2.32c-2.43,1.56-6.8,5.43-13.1,11.58l-3.61-3.99
					c7.48-7.82,14.93-13.71,22.37-17.62c7.44-3.91,13.14-5.85,17.13-5.85c1.41,0,2.51,0.3,3.34,0.95c0.8,0.65,1.22,1.48,1.22,2.47
					c0,0.99-0.49,3.61-1.52,7.9l-5.09,20.51c7.86-12.15,16.79-22.52,26.7-31.14c4.79-4.1,8.73-6.15,11.96-6.15
					c2.35,0,4.29,0.72,5.85,2.2c1.56,1.48,2.35,3.23,2.35,5.2c0,2.05-0.76,3.8-2.28,5.24c-1.52,1.44-5.32,3.15-11.39,5.13
					c-5.77,1.9-10.48,4.18-14.09,6.84c-3.61,2.66-7.6,6.72-11.93,12.19c-4.33,5.47-7.33,10.25-9.08,14.28
					c-1.71,4.06-4.33,13.52-7.82,28.33L2572.66,901.83z"/>
				<path class="st4" d="M2626.56,832.45l-5.13-3.87c7.79-8.36,14.89-14.32,21.31-17.85c6.42-3.53,11.89-5.28,16.41-5.28
					c2.51,0,4.41,0.53,5.73,1.6c1.33,1.06,1.98,2.51,1.98,4.33c0,2.2-2.51,11.55-7.6,28.03c-8.24,26.96-12.34,43.22-12.34,48.76
					c0,1.06,0.27,1.94,0.84,2.66c0.53,0.72,1.1,1.1,1.75,1.1c2.47,0,8.89-4.71,19.18-14.13l4.56,4.33
					c-10.67,9.8-18.5,16.06-23.39,18.8c-4.9,2.73-8.93,4.1-12.04,4.1c-2.73,0-4.9-0.84-6.49-2.51c-1.59-1.67-2.39-3.99-2.39-6.95
					c0-9.49,5.85-32.7,17.55-69.61c0.53-1.75,0.8-3.3,0.8-4.67c0-1.52-0.68-2.28-2.09-2.28c-1.56,0-3.34,0.61-5.32,1.82
					C2637.84,822.04,2633.43,825.92,2626.56,832.45z M2672.51,757.02c2.43,0,4.41,0.76,5.96,2.32s2.35,3.57,2.35,6
					c0,3.34-1.18,6.27-3.57,8.81s-5.05,3.84-8.01,3.84c-2.32,0-4.29-0.8-5.85-2.39s-2.32-3.68-2.32-6.27c0-3.42,1.1-6.34,3.38-8.74
					C2666.7,758.2,2669.4,757.02,2672.51,757.02z"/>
				<path class="st4" d="M2741.52,873.24l3.87,5.01c-19.1,17.7-35.47,26.55-49.14,26.55c-5.51,0-9.76-1.82-12.68-5.47
					s-4.37-9.49-4.37-17.55c0-16.25,5.05-32.43,15.19-48.54c11.39-18.31,24.99-27.46,40.83-27.46c5.54,0,9.76,1.33,12.68,4.03
					s4.41,6.42,4.41,11.13c0,4.94-1.79,9.8-5.28,14.58c-3.49,4.79-9.8,9.76-18.84,14.93c-4.52,2.51-14.2,7.03-29.02,13.56
					c-0.68,4.1-1.03,8.01-1.03,11.74c0,5.39,0.87,9.15,2.62,11.28c1.75,2.13,4.29,3.19,7.67,3.19c3.19,0,6.68-0.87,10.52-2.62
					C2724.08,885.24,2731.6,880.45,2741.52,873.24z M2700.58,856.72c12.57-5.47,21.99-11.36,28.33-17.66
					c4.29-4.41,6.42-8.77,6.42-13.1c0-3.27-0.87-5.89-2.62-7.82s-4.06-2.89-6.84-2.89c-2.89,0-5.7,1.06-8.43,3.19
					c-3.68,2.81-6.76,7.06-9.23,12.76C2704.6,839.55,2702.06,848.06,2700.58,856.72z"/>
				<path class="st4" d="M2812.99,806.01c6.95,0,12.3,1.29,16.06,3.91c3.8,2.62,5.7,5.66,5.7,9.08c0,2.05-0.8,3.84-2.39,5.35
					c-1.6,1.52-3.53,2.28-5.81,2.28c-1.48,0-2.77-0.34-3.84-0.99c-1.1-0.65-2.66-2.24-4.71-4.82c-3.8-4.94-7.6-7.41-11.32-7.41
					c-3.23,0-6.04,1.18-8.51,3.57c-2.43,2.39-3.68,5.35-3.68,8.92c0,3.11,0.8,6.15,2.35,9.08c1.56,2.89,5.51,7.63,11.81,14.17
					c8.66,8.92,12.99,17.43,12.99,25.48s-3.53,15.08-10.52,21.12c-7.03,6-16.06,9.04-27.15,9.04c-9.27,0-16.18-1.86-20.7-5.54
					c-4.52-3.68-6.76-8.2-6.76-13.6c0-2.66,0.84-4.86,2.54-6.61c1.71-1.75,3.84-2.62,6.34-2.62c2.16,0,4.03,0.68,5.58,2.09
					s2.35,3.08,2.35,4.98c0,0.76-0.04,1.75-0.15,2.96c-0.04,0.99-0.08,1.82-0.08,2.51c0,2.51,1.1,4.63,3.27,6.38
					c2.09,1.75,4.98,2.62,8.62,2.62c4.18,0,7.9-0.72,11.05-2.13c3.19-1.41,5.7-3.53,7.48-6.34c1.79-2.85,2.66-5.7,2.66-8.51
					c0-2.73-0.84-5.43-2.51-8.17c-1.67-2.73-5.43-7.25-11.28-13.56c-8.13-8.81-12.15-17.24-12.15-25.37
					c0-7.44,3.08-13.94,9.23-19.52C2795.64,808.79,2803.46,806.01,2812.99,806.01z"/>
			</g>
		</g>
	</g>
</g>
</svg>
